<svg width="1000" height="600" viewBox="0 0 1000 600" fill="none" xmlns="http://www.w3.org/2000/svg">
  <style>
    .bg { fill: #09090b; }
    .sidebar { fill: #121215; stroke: #27272a; }
    .card { fill: #18181b; stroke: #27272a; stroke-width: 1; }
    .accent-card { fill: #022c22; stroke: #10b981; stroke-width: 1.5; }
    .header-text { font-family: system-ui, -apple-system, sans-serif; font-size: 15px; font-weight: 700; fill: #fafafa; }
    .sub-text { font-family: system-ui, -apple-system, sans-serif; font-size: 11px; fill: #a1a1aa; }
    .code-text { font-family: monospace; font-size: 10px; fill: #34d399; }
    .badge-green { fill: #064e3b; stroke: #10b981; font-family: sans-serif; font-size: 9px; font-weight: 700; }
  </style>

  <!-- App Frame -->
  <rect width="1000" height="600" rx="14" class="bg" stroke="#3f3f46" stroke-width="2"/>
  
  <!-- Top Bar -->
  <rect width="1000" height="42" fill="#121215" stroke="#27272a" stroke-width="1"/>
  <circle cx="20" cy="21" r="5" fill="#f43f5e"/>
  <circle cx="36" cy="21" r="5" fill="#fbbf24"/>
  <circle cx="52" cy="21" r="5" fill="#10b981"/>
  <text x="500" y="26" text-anchor="middle" class="header-text" font-size="13">CriticAI — Multi-Agent Workspace (BrewBot SaaS Campaign)</text>
  <rect x="880" y="10" width="100" height="22" rx="6" fill="#27272a"/>
  <text x="930" y="24" text-anchor="middle" class="sub-text" fill="#d4d4d8">⚙️ Settings</text>

  <!-- Sidebar -->
  <rect y="42" width="220" height="558" class="sidebar"/>
  <text x="20" y="72" class="header-text" font-size="13">Active Sessions</text>

  <!-- Session Items -->
  <rect x="12" y="85" width="196" height="42" rx="8" class="accent-card"/>
  <text x="24" y="105" class="header-text" font-size="11">BrewBot GTM Strategy</text>
  <text x="24" y="118" class="sub-text" font-size="9">2 Agents • Active</text>

  <rect x="12" y="135" width="196" height="42" rx="8" class="card"/>
  <text x="24" y="155" class="header-text" font-size="11">Fintech Auth Engine</text>
  <text x="24" y="168" class="sub-text" font-size="9">3 Agents • Completed</text>

  <!-- Main Canvas Area -->
  <!-- Swarm Live Story Panel -->
  <rect x="240" y="60" width="340" height="420" rx="12" class="card"/>
  <text x="260" y="88" class="header-text">Swarm Activity Story</text>
  <text x="530" y="88" class="sub-text" fill="#10b981">⏱ 22.4s</text>

  <!-- Agent Node 1 -->
  <rect x="255" y="105" width="310" height="65" rx="8" fill="#09090b" stroke="#10b981" stroke-width="1"/>
  <text x="270" y="125" class="header-text" font-size="12">Backend Security Engineer</text>
  <text x="540" y="125" class="code-text">DONE</text>
  <text x="270" y="145" class="sub-text">✓ Added Argon2id password hashing &amp; JWT auth</text>

  <!-- Agent Node 2 -->
  <rect x="255" y="180" width="310" height="65" rx="8" fill="#09090b" stroke="#10b981" stroke-width="1"/>
  <text x="270" y="200" class="header-text" font-size="12">B2B Copywriter</text>
  <text x="540" y="200" class="code-text">DONE</text>
  <text x="270" y="220" class="sub-text">✓ Drafted high-converting SaaS landing page copy</text>

  <!-- Behind the Scenes Accordion -->
  <rect x="255" y="260" width="310" height="200" rx="8" fill="#09090b" stroke="#3f3f46" stroke-width="1"/>
  <text x="270" y="280" class="header-text" font-size="11">Behind the Scenes (Execution Logs)</text>
  <text x="270" y="300" class="code-text">[ORCHESTRATOR] 2 worker subgraphs spawned via Send API</text>
  <text x="270" y="315" class="code-text">[CRITIC:Security] Draft Rejected -> Revision 1</text>
  <text x="270" y="330" class="code-text">[WORKER:Security] Re-executing with Argon2id fix...</text>
  <text x="270" y="345" class="code-text">[CRITIC:Security] Deliverable APPROVED</text>
  <text x="270" y="360" class="code-text">[HITL ROUTER] Graph paused at interrupt_before=['hitl']</text>

  <!-- Right Canvas: Deliverables Preview -->
  <rect x="600" y="60" width="380" height="420" rx="12" class="card"/>
  <text x="620" y="88" class="header-text">Deliverables Canvas</text>
  <rect x="880" y="72" width="80" height="24" rx="6" fill="#10b981"/>
  <text x="920" y="88" text-anchor="middle" class="header-text" font-size="10" fill="#09090b">Export MD</text>

  <rect x="615" y="105" width="350" height="355" rx="8" fill="#09090b" stroke="#27272a" stroke-width="1"/>
  <text x="630" y="130" class="header-text" font-size="13" fill="#38bdf8"># BrewBot GTM &amp; Technical Architecture</text>
  <text x="630" y="155" class="sub-text" fill="#e4e4e7">## 1. Authentication Security Engine</text>
  <text x="630" y="175" class="sub-text" fill="#a1a1aa">• OAuth2 Bearer token authentication with JWT stateless sessions.</text>
  <text x="630" y="195" class="sub-text" fill="#a1a1aa">• Password hashing: Argon2id with 64MB memory cost.</text>
  <text x="630" y="215" class="sub-text" fill="#a1a1aa">• Rate limiting: 100 req/min per IP via Redis token bucket.</text>
  <text x="630" y="250" class="sub-text" fill="#e4e4e7">## 2. GTM Copywriter Positioning</text>
  <text x="630" y="270" class="sub-text" fill="#a1a1aa">"Precision-roasted coffee curated by AI for your palate."</text>

  <!-- Bottom HITL Input Bar -->
  <rect x="240" y="495" width="740" height="85" rx="12" fill="#121215" stroke="#3b82f6" stroke-width="1.5"/>
  <text x="260" y="520" class="header-text" font-size="12" fill="#60a5fa">Human-in-the-Loop Feedback &amp; Revision Router</text>
  <rect x="260" y="530" width="600" height="38" rx="8" fill="#18181b" stroke="#3f3f46" stroke-width="1"/>
  <text x="275" y="553" class="sub-text" fill="#71717a">Type targeted feedback for an agent or click Approve to finalize...</text>
  <rect x="870" y="530" width="95" height="38" rx="8" fill="#10b981"/>
  <text x="917" y="553" text-anchor="middle" class="header-text" font-size="11" fill="#09090b">Approve ✔</text>
</svg>